<svg version="1.1" viewBox="0.0 0.0 960.0 540.0" fill="none" stroke="none" stroke-linecap="square" stroke-miterlimit="10" xmlns:xlink="http://www.w3.org/1999/xlink" xmlns="http://www.w3.org/2000/svg"><clipPath id="g6ece57c9eb_0_0.0"><path d="m0 0l960.0 0l0 540.0l-960.0 0l0 -540.0z" clip-rule="nonzero"/></clipPath><g clip-path="url(#g6ece57c9eb_0_0.0)"><path fill="#ffffff" d="m0 0l960.0 0l0 540.0l-960.0 0z" fill-rule="evenodd"/><path fill="#000000" fill-opacity="0.0" d="m149.08267 458.6063l653.3544 0.881897" fill-rule="evenodd"/><path stroke="#595959" stroke-width="3.0" stroke-linejoin="round" stroke-linecap="butt" d="m149.08267 458.6063l653.3544 0.881897" fill-rule="evenodd"/><path fill="#000000" fill-opacity="0.0" d="m176.95932 482.12598l4.346451 -424.25195" fill-rule="evenodd"/><path stroke="#595959" stroke-width="3.0" stroke-linejoin="round" stroke-linecap="butt" d="m176.95932 482.12598l4.1620483 -406.2529" fill-rule="evenodd"/><path fill="#595959" stroke="#595959" stroke-width="3.0" stroke-linecap="butt" d="m186.07631 75.923836l-4.81546 -13.664345l-5.094406 13.562813z" fill-rule="evenodd"/><path fill="#000000" fill-opacity="0.0" d="m149.08267 416.68503l653.3544 0.881897" fill-rule="evenodd"/><path stroke="#595959" stroke-width="3.0" stroke-linejoin="round" stroke-linecap="butt" stroke-dasharray="12.0,9.0" d="m149.08267 416.68503l653.3544 0.881897" fill-rule="evenodd"/><path fill="#000000" fill-opacity="0.0" d="m153.75722 280.01312l653.3544 0.881897" fill-rule="evenodd"/><path stroke="#595959" stroke-width="3.0" stroke-linejoin="round" stroke-linecap="butt" stroke-dasharray="12.0,9.0" d="m153.75722 280.01312l653.3544 0.881897" fill-rule="evenodd"/><path fill="#000000" fill-opacity="0.0" d="m157.56299 143.3412l653.3543 0.881897" fill-rule="evenodd"/><path stroke="#595959" stroke-width="3.0" stroke-linejoin="round" stroke-linecap="butt" stroke-dasharray="12.0,9.0" d="m157.56299 143.3412l653.3543 0.881897" fill-rule="evenodd"/></g></svg>